<svg width="18" height="20" viewBox="0 0 18 20" fill="none" xmlns="http://www.w3.org/2000/svg">
<path fill-rule="evenodd" clip-rule="evenodd" d="M1.60742 0.701259C2.77891 0.0535445 4.26898 0.400996 5.01032 1.47115L5.09562 1.60302L5.73931 2.67098L5.84035 2.66333C7.98434 2.53749 10.0617 3.49113 11.2965 5.20069L11.4302 5.39374L11.5698 5.61425C12.7813 7.62379 14.1192 9.26886 15.4945 10.1813C16.1498 10.6173 16.6386 10.7787 16.8922 10.7928C17.2744 10.7596 17.619 10.9871 17.7418 11.3472C17.8545 11.6802 17.7184 12.0441 17.4293 12.2488L17.3468 12.3005L13.6194 14.3621L13.6736 14.4741C14.2988 15.8714 13.8297 17.5106 12.5501 18.4002L12.4045 18.4959L12.2525 18.5851C10.8114 19.3822 9.00558 19.045 7.96612 17.8577L7.85383 17.7223L7.76444 17.6008L4.02525 19.671C3.74961 19.8229 3.41185 19.8162 3.15412 19.6611L3.0615 19.5961L2.98593 19.5257C2.72164 19.2432 2.68786 18.8355 2.8973 18.5546C3.02502 18.3133 3.12242 17.8332 3.05715 17.0749C2.91995 15.4803 2.10277 13.5496 0.892515 11.5389C-0.295487 9.56843 -0.189833 7.14838 1.09163 5.29169L1.14277 5.21965L0.503986 4.16049C-0.151549 3.07154 0.158638 1.69806 1.1756 0.96167L1.30639 0.873006L1.4391 0.794314L1.60742 0.701259ZM3.97279 4.84428C1.82553 6.03139 1.09023 8.66969 2.32926 10.7272C3.82035 13.2022 4.63001 15.3604 4.73118 17.1471L4.737 17.2589L4.74014 17.4154L14.9574 11.7634L14.7299 11.6282C13.2457 10.7001 11.7772 9.07459 10.3564 6.79417L10.1331 6.42944C8.88949 4.36557 6.12501 3.65308 3.97279 4.84428ZM12.1656 15.1677L9.22085 16.7961L9.25416 16.8364C9.75565 17.3886 10.5931 17.5663 11.296 17.2502L11.4193 17.1882L11.5335 17.1197C12.1802 16.6987 12.4379 15.9168 12.1904 15.228L12.1656 15.1677ZM2.52696 2.05997L2.43344 2.10497L2.26636 2.19696C1.87385 2.41396 1.72199 2.8741 1.89652 3.26036L1.94263 3.34804L2.32605 3.98456L2.36689 3.95227C2.52913 3.8272 2.69875 3.70967 2.87534 3.60008L3.14541 3.44169C3.41948 3.28997 3.70327 3.15964 3.99492 3.05104L4.03138 3.03754L3.65686 2.41704C3.44708 2.06799 3.01287 1.91401 2.62327 2.02631L2.52696 2.05997Z" fill="white"/>
</svg>
